<svg width="450" height="167" viewBox="0 0 450 167" fill="none" xmlns="http://www.w3.org/2000/svg">
<mask id="mask0" mask-type="alpha" maskUnits="userSpaceOnUse" x="0" y="0" width="450" height="167">
<rect width="450" height="167" fill="#C4C4C4"/>
</mask>
<g mask="url(#mask0)">
<path d="M128.207 -169.007C70.1972 -180.849 18.745 -140.11 4.31985 -78.3322C-10.1054 -16.5539 14.3337 15.3318 37.3218 55.1891C72.3784 115.971 181.551 170.237 265.083 166.789C337.517 163.8 389.028 145.514 425.936 77.1107C489.378 -40.4679 417.444 -117.093 325.527 -102.745C214.571 -85.424 213.629 -151.57 128.207 -169.007Z" fill="#DFE8F3"/>
<path d="M147.222 9.48716C147.222 6.72824 149.458 4.4917 152.217 4.4917H343.044C345.802 4.4917 348.039 6.72824 348.039 9.48715V122.384C348.039 125.143 345.802 127.38 343.044 127.38H152.217C149.458 127.38 147.222 125.143 147.222 122.384V9.48716Z" fill="white"/>
<path d="M156.284 -1.57373C158.158 -3.44739 160.699 -4.5 163.349 -4.5H331.911C334.561 -4.5 337.102 -3.44739 338.976 -1.57373L346.041 5.49091H149.22L156.284 -1.57373Z" fill="#C8D4E3"/>
<path d="M147.222 9.48715C147.222 6.72824 149.458 4.4917 152.217 4.4917H343.044C345.802 4.4917 348.039 6.72824 348.039 9.48715V27.4708H147.222V9.48715Z" fill="#A2B1C6"/>
<path d="M254.939 67.9571C254.25 67.5335 253.597 67.0519 252.988 66.5174V57.6935H256.832V69.018C256.195 68.6869 255.564 68.3332 254.939 67.9571ZM262.341 63.5031H258.498V69.7253C259.752 70.309 261.035 70.8288 262.341 71.2829V63.5031ZM252.988 68.2855L252.737 68.0834C252.352 67.7635 251.992 67.4351 251.648 67.1068L242.53 66.0459L244.205 69.2959L255.927 70.2557C254.899 69.6758 253.916 69.0172 252.988 68.2855V68.2855ZM262.14 73.009C260.832 72.5793 259.549 72.0762 258.297 71.5018L257.828 71.2661L250.099 70.7525L251.406 73.4889L264.887 73.8004C263.966 73.5815 263.036 73.3121 262.14 73.009ZM246.097 57.6935C247.572 60.2875 249.327 62.7101 251.33 64.9176V56.1275L242.882 51.9429L242.128 61.7518L250.828 66.2395C248.547 63.8469 246.918 60.9036 246.097 57.6935V57.6935Z" fill="#119DFF"/>
<path d="M210.738 84.2858C211.795 84.8763 212.858 85.1715 213.926 85.1715C214.815 85.1715 215.336 84.8557 215.49 84.2242C215.541 84.0085 215.567 83.7467 215.567 83.4386C215.567 83.1254 215.531 82.884 215.459 82.7146C215.387 82.54 215.266 82.4117 215.097 82.3295C214.927 82.2422 214.702 82.178 214.419 82.137C214.142 82.0959 213.788 82.0394 213.356 81.9675C212.925 81.8905 212.53 81.8058 212.17 81.7134C211.811 81.6209 211.505 81.4874 211.254 81.3129C210.72 80.938 210.463 80.3065 210.483 79.4182V79.2256C210.483 78.2912 210.792 77.6262 211.408 77.2309C212.003 76.8406 212.987 76.7071 214.358 76.8304C215.292 76.9176 216.037 77.0794 216.591 77.3156L216.229 78.4786C215.613 78.2167 214.874 78.0267 214.011 77.9086C213.744 77.8727 213.492 77.8547 213.256 77.8547C213.025 77.8547 212.815 77.8727 212.625 77.9086C212.435 77.9446 212.275 78.0113 212.147 78.1089C211.901 78.3091 211.772 78.6814 211.762 79.2256C211.747 79.8675 211.926 80.2757 212.301 80.4503C212.661 80.6197 213.087 80.7378 213.58 80.8045C214.073 80.8662 214.476 80.9226 214.789 80.974C215.102 81.0202 215.387 81.0844 215.644 81.1665C215.9 81.2487 216.121 81.3796 216.306 81.5593C216.691 81.9239 216.879 82.558 216.868 83.4617C216.843 85.038 216.185 85.9366 214.897 86.1574C214.506 86.2241 214.116 86.2575 213.726 86.2575C213.336 86.2575 212.976 86.2318 212.648 86.1805C212.324 86.1343 212.014 86.0675 211.716 85.9802C211.151 85.821 210.64 85.6105 210.183 85.3487L210.738 84.2858Z" fill="#2A3F5F"/>
<path d="M225.779 85.2254C224.799 85.9135 223.762 86.2575 222.668 86.2575C221.389 86.2575 220.537 85.8031 220.111 84.8942C219.864 84.3808 219.721 83.7313 219.68 82.9457C219.664 82.5862 219.656 82.1909 219.656 81.7596C219.656 81.3231 219.659 80.8841 219.664 80.4425C219.674 80.001 219.708 79.5928 219.764 79.2179C219.821 78.8431 219.908 78.5068 220.026 78.209C220.149 77.9061 220.324 77.6493 220.55 77.4388C221.017 77.0024 221.736 76.7841 222.706 76.7841C223.682 76.7841 224.719 77.046 225.818 77.5697L225.941 76.9382H227.05L227.058 89.6078H225.779V85.2254ZM225.779 78.6326C224.855 78.1705 223.962 77.9394 223.099 77.9394C222.473 77.9394 222.059 77.9908 221.859 78.0935C221.659 78.1962 221.505 78.3297 221.397 78.494C221.294 78.6583 221.21 78.8842 221.143 79.1717C221.025 79.7109 220.966 80.5992 220.966 81.8366V82.006C220.966 83.1459 221.107 83.9443 221.389 84.4013C221.672 84.8686 222.188 85.1022 222.937 85.1022H223.053C223.762 85.1022 224.486 84.9071 225.225 84.5169C225.435 84.409 225.62 84.2986 225.779 84.1857V78.6326Z" fill="#2A3F5F"/>
<path d="M230.701 73.0102L231.972 72.9024V86.1034H230.716L230.701 73.0102Z" fill="#2A3F5F"/>
<path d="M236.608 74.7431C236.264 74.7431 236.044 74.6944 235.946 74.5968C235.792 74.4376 235.715 74.2194 235.715 73.9421C235.715 73.6597 235.73 73.4595 235.761 73.3414C235.797 73.2182 235.848 73.1232 235.915 73.0564C236.038 72.9332 236.226 72.8716 236.477 72.8716C236.734 72.8716 236.916 72.8844 237.024 72.9101C237.137 72.9358 237.23 72.9845 237.301 73.0564C237.425 73.1797 237.486 73.3825 237.486 73.6649C237.486 73.9421 237.471 74.1424 237.44 74.2656C237.414 74.3837 237.368 74.4787 237.301 74.5506C237.173 74.679 236.942 74.7431 236.608 74.7431ZM235.984 76.9382H237.248V86.1034H236L235.984 76.9382Z" fill="#2A3F5F"/>
<path d="M245.473 85.6644C244.636 86.0598 243.864 86.2575 243.155 86.2575C241.871 86.2575 241.142 85.7081 240.968 84.6093C240.927 84.3474 240.906 83.9675 240.906 83.4694V78.0087H239.797V77.0614L240.906 76.9382L241.106 74.8433H242.177V76.9382H244.849V78.0087H242.177V83.4463C242.177 84.0778 242.223 84.4809 242.315 84.6555C242.485 84.9738 242.824 85.133 243.332 85.133C243.84 85.133 244.408 84.9764 245.034 84.6632L245.473 85.6644Z" fill="#2A3F5F"/>
<path d="M254.715 85.6182C253.653 86.0444 252.479 86.2575 251.196 86.2575C250.451 86.2575 249.82 86.1805 249.301 86.0264C248.474 85.7902 247.925 85.3024 247.653 84.5631C247.401 83.8699 247.275 82.843 247.275 81.4823V81.0895C247.275 79.4618 247.614 78.3194 248.292 77.6622C248.903 77.0768 249.922 76.7841 251.35 76.7841C252.741 76.7841 253.691 77.1282 254.199 77.8162C254.446 78.1499 254.608 78.5556 254.685 79.0331C254.767 79.5055 254.808 79.9573 254.808 80.3886C254.808 81.0613 254.793 81.5824 254.762 81.9521C254.038 81.9829 253.388 81.9983 252.813 81.9983C252.813 81.9983 252.4 81.9983 251.573 81.9983C250.279 81.9983 249.283 81.9419 248.585 81.8289C248.585 83.0098 248.734 83.834 249.031 84.3012C249.396 84.8711 250.123 85.1561 251.211 85.1561C252.3 85.1561 253.342 84.943 254.338 84.5169L254.715 85.6182ZM253.506 80.9278V80.1884C253.506 79.3823 253.35 78.8072 253.036 78.4632C252.687 78.0781 252.084 77.8855 251.227 77.8855C250.2 77.8855 249.499 78.1089 249.124 78.5556C248.764 78.9818 248.585 79.7725 248.585 80.9278H253.506Z" fill="#2A3F5F"/>
<path d="M256.957 76.9382H258.335L260.738 84.4167L260.969 85.1792L261.185 84.4167L263.48 76.9382H264.874L261.778 86.1034H260.099L256.957 76.9382Z" fill="#2A3F5F"/>
<path d="M268.155 74.7431C267.811 74.7431 267.59 74.6944 267.493 74.5968C267.339 74.4376 267.262 74.2194 267.262 73.9421C267.262 73.6597 267.277 73.4595 267.308 73.3414C267.344 73.2182 267.395 73.1232 267.462 73.0564C267.585 72.9332 267.773 72.8716 268.024 72.8716C268.281 72.8716 268.463 72.8844 268.571 72.9101C268.684 72.9358 268.777 72.9845 268.848 73.0564C268.972 73.1797 269.033 73.3825 269.033 73.6649C269.033 73.9421 269.018 74.1424 268.987 74.2656C268.961 74.3837 268.915 74.4787 268.848 74.5506C268.72 74.679 268.489 74.7431 268.155 74.7431ZM267.531 76.9382H268.795V86.1034H267.547L267.531 76.9382Z" fill="#2A3F5F"/>
<path d="M271.606 85.2331L276.296 78.001H271.506V76.9382H277.852V77.8085L273.177 85.0329H278.045V86.1034H271.606V85.2331Z" fill="#2A3F5F"/>
<path d="M204.17 16.481C204.17 14.2739 205.959 12.4846 208.166 12.4846H336.05C338.257 12.4846 340.046 14.2739 340.046 16.481V16.481C340.046 18.6881 338.257 20.4773 336.05 20.4773H208.166C205.959 20.4773 204.17 18.6881 204.17 16.481V16.481Z" fill="#F3F6FA"/>
<path d="M165.205 16.4808C165.205 19.2397 162.969 21.4763 160.21 21.4763C157.451 21.4763 155.214 19.2397 155.214 16.4808C155.214 13.7219 157.451 11.4854 160.21 11.4854C162.969 11.4854 165.205 13.7219 165.205 16.4808Z" fill="#C8D4E3"/>
<path d="M181.191 16.4808C181.191 19.2397 178.954 21.4763 176.195 21.4763C173.436 21.4763 171.2 19.2397 171.2 16.4808C171.2 13.7219 173.436 11.4854 176.195 11.4854C178.954 11.4854 181.191 13.7219 181.191 16.4808Z" fill="#C8D4E3"/>
<path d="M197.176 16.4808C197.176 19.2397 194.94 21.4763 192.181 21.4763C189.422 21.4763 187.186 19.2397 187.186 16.4808C187.186 13.7219 189.422 11.4854 192.181 11.4854C194.94 11.4854 197.176 13.7219 197.176 16.4808Z" fill="#C8D4E3"/>
<path d="M174.099 -0.741535C174.283 -0.909843 174.524 -1.00317 174.773 -1.00317H318.49C318.739 -1.00317 318.98 -0.909843 319.164 -0.741533V-0.741533C319.837 -0.126316 319.402 0.995008 318.49 0.995008H174.773C173.861 0.995008 173.426 -0.126319 174.099 -0.741535V-0.741535Z" fill="#506784"/>
<path d="M34.875 119.735L42.5465 126.136L30.3855 140.712L22.714 134.311L34.875 119.735Z" fill="#F3C6BF"/>
<path d="M27.0972 129.257L34.7687 135.657C34.7687 135.657 38.808 141.112 39.3034 146.597C39.4941 148.708 37.0633 149.282 37.0633 149.282L21.3367 136.161L27.0972 129.257Z" fill="#506784"/>
<path d="M52.8921 32.8145L92.2718 64.2858C104.874 96.2923 38.3209 133.723 38.3209 133.723L27.8556 126.058C27.8556 126.058 39.6888 108.526 50.8095 81.7699C56.8301 67.2843 54.5731 48.1488 52.8921 32.8145Z" fill="#0D76BF"/>
<path d="M103.262 130.726H113.253V149.708H103.262V130.726Z" fill="#F3C6BF"/>
<path d="M54.3067 42.3059C50.8101 35.8118 48.8117 31.3159 49.7739 17.8281H115.011C121.246 28.3186 125.242 54.2949 125.242 75.7754C125.242 97.2559 122.245 116.239 115.011 141.216H100.764C100.764 141.216 94.7701 101.252 92.2723 82.769C90.9679 73.116 57.0197 47.3445 54.3067 42.3059Z" fill="#119DFF"/>
<path d="M103.262 144.426H113.253C113.253 144.426 119.849 146.027 123.744 149.921C125.242 151.42 123.744 153.418 123.744 153.418H103.262V144.426Z" fill="#506784"/>
</g>
</svg>
