<svg width="14" height="14" viewBox="0 0 14 14" fill="none" xmlns="http://www.w3.org/2000/svg">
<path d="M10.0436 10.3945C9.7153 10.7228 9.1833 10.7228 8.8557 10.3945L7 8.27348L5.1443 10.3938C4.816 10.7221 4.284 10.7221 3.9564 10.3938C3.6281 10.0655 3.6281 9.53348 3.9564 9.20588L5.887 7.00088L3.9557 4.79448C3.6274 4.46618 3.6274 3.93488 3.9557 3.60658C4.284 3.27828 4.8153 3.27828 5.1436 3.60658L7 5.72828L8.8557 3.60658C9.184 3.27828 9.7153 3.27828 10.0436 3.60658C10.3719 3.93488 10.3719 4.46688 10.0436 4.79448L8.113 7.00088L10.0436 9.20588C10.3719 9.53418 10.3719 10.0662 10.0436 10.3945V10.3945Z" fill="#506784"/>
</svg>
