<svg width="14" height="14" viewBox="0 0 14 14" fill="none" xmlns="http://www.w3.org/2000/svg">
<path d="M10.0436 10.3943C9.7153 10.7226 9.1833 10.7226 8.8557 10.3943L7 8.27329L5.1443 10.3936C4.816 10.7219 4.284 10.7219 3.9564 10.3936C3.6281 10.0653 3.6281 9.53329 3.9564 9.20569L5.887 7.00069L3.9557 4.79429C3.6274 4.46599 3.6274 3.93469 3.9557 3.60639C4.284 3.27809 4.8153 3.27809 5.1436 3.60639L7 5.72809L8.8557 3.60639C9.184 3.27809 9.7153 3.27809 10.0436 3.60639C10.3719 3.93469 10.3719 4.46669 10.0436 4.79429L8.113 7.00069L10.0436 9.20569C10.3719 9.53399 10.3719 10.066 10.0436 10.3943V10.3943Z" fill="#DE350B"/>
</svg>
