<svg width="20" height="20" viewBox="0 0 20 20" fill="none" xmlns="http://www.w3.org/2000/svg">
<path d="M9.99984 16.6667C6.32484 16.6667 3.33317 13.675 3.33317 10C3.33317 6.32502 6.32484 3.33335 9.99984 3.33335C13.6748 3.33335 16.6665 6.32502 16.6665 10C16.6665 13.675 13.6748 16.6667 9.99984 16.6667ZM9.99984 1.66669C8.90549 1.66669 7.82186 1.88224 6.81081 2.30102C5.79976 2.71981 4.8811 3.33364 4.10728 4.10746C2.54448 5.67027 1.6665 7.78988 1.6665 10C1.6665 12.2102 2.54448 14.3298 4.10728 15.8926C4.8811 16.6664 5.79976 17.2802 6.81081 17.699C7.82186 18.1178 8.90549 18.3334 9.99984 18.3334C12.21 18.3334 14.3296 17.4554 15.8924 15.8926C17.4552 14.3298 18.3332 12.2102 18.3332 10C18.3332 8.90567 18.1176 7.82204 17.6988 6.81099C17.28 5.79995 16.6662 4.88129 15.8924 4.10746C15.1186 3.33364 14.1999 2.71981 13.1889 2.30102C12.1778 1.88224 11.0942 1.66669 9.99984 1.66669Z" fill="#EF553B"/>
<rect x="6.36768" y="7.54855" width="1.67" height="8.60363" transform="rotate(-45 6.36768 7.54855)" fill="#EF553B"/>
<rect x="12.4517" y="6.36771" width="1.67" height="8.60363" transform="rotate(45 12.4517 6.36771)" fill="#EF553B"/>
</svg>
