<svg width="300" height="184" viewBox="0 0 300 184" fill="none" xmlns="http://www.w3.org/2000/svg">
<rect width="300" height="183.736" fill="white"/>
<path d="M177.068 83.9497C175.39 82.9187 173.801 81.7464 172.32 80.4454V58.969H181.674V86.5318C180.125 85.7257 178.59 84.865 177.068 83.9497ZM195.084 73.109H185.73V88.2532C188.783 89.6738 191.905 90.9391 195.084 92.0443V73.109ZM172.32 84.7489L171.708 84.2571C170.771 83.4784 169.894 82.6791 169.059 81.8799L146.865 79.2978L150.941 87.208L179.473 89.5442C176.97 88.1329 174.578 86.5297 172.32 84.7489ZM194.595 96.2454C191.411 95.1997 188.288 93.975 185.241 92.5771L184.099 92.0033L165.289 90.7533L168.468 97.4134L201.28 98.1717C199.038 97.6389 196.776 96.9831 194.595 96.2454ZM155.547 58.969C159.138 65.2824 163.409 71.1789 168.284 76.5518V55.1573L147.721 44.9724L145.887 68.8465L167.062 79.7692C161.51 73.9456 157.544 66.782 155.547 58.969Z" fill="#119DFF"/>
<path d="M69.483 123.693C72.0574 125.13 74.6443 125.849 77.2437 125.849C79.4057 125.849 80.6742 125.08 81.0491 123.543C81.1741 123.018 81.2366 122.381 81.2366 121.631C81.2366 120.868 81.1491 120.281 80.9741 119.869C80.7992 119.444 80.5055 119.131 80.0931 118.931C79.6807 118.719 79.1308 118.563 78.4434 118.463C77.7686 118.363 76.9063 118.225 75.8565 118.05C74.8068 117.863 73.8445 117.657 72.9697 117.432C72.0949 117.207 71.3513 116.882 70.739 116.457C69.4393 115.545 68.8144 114.007 68.8644 111.845V111.377C68.8644 109.102 69.6142 107.484 71.1139 106.522C72.5635 105.572 74.9567 105.247 78.2935 105.547C80.568 105.759 82.38 106.153 83.7297 106.728L82.8487 109.559C81.349 108.921 79.5494 108.459 77.4499 108.171C76.8001 108.084 76.1877 108.04 75.6128 108.04C75.0505 108.04 74.5381 108.084 74.0757 108.171C73.6133 108.259 73.2259 108.421 72.9135 108.659C72.3136 109.146 72.0012 110.052 71.9762 111.377C71.9387 112.939 72.3761 113.933 73.2884 114.357C74.1632 114.77 75.2004 115.057 76.4002 115.22C77.5999 115.37 78.5809 115.507 79.3432 115.632C80.1056 115.745 80.7992 115.901 81.424 116.101C82.0489 116.301 82.5862 116.619 83.0361 117.057C83.9734 117.944 84.4296 119.487 84.4046 121.687C84.3421 125.524 82.7425 127.711 79.6057 128.248C78.6559 128.41 77.7061 128.492 76.7563 128.492C75.8065 128.492 74.9317 128.429 74.1319 128.304C73.3446 128.192 72.5885 128.029 71.8637 127.817C70.489 127.429 69.2455 126.917 68.1333 126.28L69.483 123.693Z" fill="#2A3F5F"/>
<path d="M106.093 125.98C103.706 127.654 101.182 128.492 98.5201 128.492C95.4083 128.492 93.3338 127.386 92.2965 125.174C91.6967 123.924 91.3467 122.343 91.2468 120.431C91.2093 119.556 91.1905 118.594 91.1905 117.544C91.1905 116.482 91.1968 115.413 91.2093 114.339C91.2343 113.264 91.3155 112.27 91.453 111.358C91.5904 110.446 91.8029 109.627 92.0903 108.902C92.3903 108.165 92.8152 107.54 93.365 107.028C94.5023 105.966 96.2519 105.434 98.6138 105.434C100.988 105.434 103.513 106.072 106.187 107.347L106.487 105.809H109.186L109.205 136.646H106.093V125.98ZM106.093 109.933C103.844 108.809 101.669 108.246 99.5699 108.246C98.0452 108.246 97.0392 108.371 96.5518 108.621C96.0644 108.871 95.6895 109.196 95.4271 109.596C95.1771 109.996 94.9709 110.546 94.8085 111.246C94.521 112.558 94.3773 114.72 94.3773 117.732V118.144C94.3773 120.918 94.721 122.862 95.4083 123.974C96.0957 125.111 97.3516 125.68 99.1762 125.68H99.4574C101.182 125.68 102.944 125.205 104.744 124.255C105.256 123.993 105.706 123.724 106.093 123.449V109.933Z" fill="#2A3F5F"/>
<path d="M118.072 96.249L121.165 95.9866V128.117H118.109L118.072 96.249Z" fill="#2A3F5F"/>
<path d="M132.45 100.467C131.613 100.467 131.075 100.348 130.838 100.111C130.463 99.7232 130.275 99.1921 130.275 98.5173C130.275 97.8299 130.313 97.3425 130.388 97.0551C130.475 96.7552 130.6 96.524 130.763 96.3615C131.063 96.0616 131.519 95.9116 132.131 95.9116C132.756 95.9116 133.2 95.9429 133.462 96.0053C133.737 96.0678 133.962 96.1866 134.137 96.3615C134.437 96.6614 134.587 97.1551 134.587 97.8424C134.587 98.5173 134.549 99.0047 134.474 99.3046C134.412 99.592 134.299 99.8232 134.137 99.9982C133.825 100.311 133.262 100.467 132.45 100.467ZM130.931 105.809H134.006V128.117H130.969L130.931 105.809Z" fill="#2A3F5F"/>
<path d="M154.026 127.048C151.989 128.011 150.108 128.492 148.384 128.492C145.259 128.492 143.485 127.154 143.06 124.48C142.96 123.843 142.91 122.918 142.91 121.706V108.415H140.211V106.109L142.91 105.809L143.397 100.711H146.003V105.809H152.508V108.415H146.003V121.649C146.003 123.187 146.115 124.168 146.34 124.593C146.753 125.367 147.578 125.755 148.815 125.755C150.052 125.755 151.433 125.374 152.958 124.611L154.026 127.048Z" fill="#2A3F5F"/>
<path d="M176.521 126.936C173.934 127.973 171.079 128.492 167.954 128.492C166.142 128.492 164.605 128.304 163.343 127.929C161.331 127.354 159.994 126.167 159.331 124.368C158.719 122.681 158.413 120.181 158.413 116.869V115.913C158.413 111.952 159.237 109.171 160.887 107.571C162.374 106.147 164.855 105.434 168.329 105.434C171.716 105.434 174.028 106.272 175.265 107.946C175.865 108.759 176.259 109.746 176.446 110.908C176.646 112.058 176.746 113.158 176.746 114.207C176.746 115.845 176.708 117.113 176.633 118.013C174.871 118.088 173.291 118.125 171.891 118.125C171.891 118.125 170.885 118.125 168.873 118.125C165.723 118.125 163.299 117.988 161.599 117.713C161.599 120.587 161.962 122.593 162.687 123.73C163.574 125.117 165.342 125.811 167.992 125.811C170.641 125.811 173.178 125.292 175.602 124.255L176.521 126.936ZM173.578 115.52V113.72C173.578 111.758 173.197 110.358 172.434 109.521C171.585 108.584 170.116 108.115 168.029 108.115C165.53 108.115 163.824 108.659 162.912 109.746C162.037 110.783 161.599 112.708 161.599 115.52H173.578Z" fill="#2A3F5F"/>
<path d="M181.976 105.809H185.332L191.18 124.011L191.743 125.867L192.267 124.011L197.854 105.809H201.247L193.711 128.117H189.624L181.976 105.809Z" fill="#2A3F5F"/>
<path d="M209.232 100.467C208.395 100.467 207.858 100.348 207.62 100.111C207.245 99.7232 207.058 99.1921 207.058 98.5173C207.058 97.8299 207.095 97.3425 207.17 97.0551C207.258 96.7552 207.383 96.524 207.545 96.3615C207.845 96.0616 208.301 95.9116 208.914 95.9116C209.538 95.9116 209.982 95.9429 210.245 96.0053C210.52 96.0678 210.744 96.1866 210.919 96.3615C211.219 96.6614 211.369 97.1551 211.369 97.8424C211.369 98.5173 211.332 99.0047 211.257 99.3046C211.194 99.592 211.082 99.8232 210.919 99.9982C210.607 100.311 210.045 100.467 209.232 100.467ZM207.714 105.809H210.788V128.117H207.751L207.714 105.809Z" fill="#2A3F5F"/>
<path d="M217.63 125.998L229.047 108.396H217.387V105.809H232.833V107.928L221.454 125.511H233.302V128.117H217.63V125.998Z" fill="#2A3F5F"/>
</svg>
