<svg width="48" height="48" viewBox="0 0 48 48" fill="none" xmlns="http://www.w3.org/2000/svg">
<path d="M26.8311 34.6554C25.4675 33.8178 24.177 32.8655 22.9735 31.8086V14.3616H30.5728V36.753C29.3146 36.0982 28.0673 35.399 26.8311 34.6554ZM41.4669 25.8486H33.8675V38.1514C36.3477 39.3055 38.884 40.3334 41.4669 41.2313V25.8486ZM22.9735 35.3046L22.4768 34.9051C21.7152 34.2725 21.0033 33.6232 20.3245 32.9739L2.2947 30.8763L5.60596 37.3024L28.7848 39.2002C26.7511 38.0537 24.8082 36.7513 22.9735 35.3046ZM41.0695 44.6441C38.4829 43.7946 35.9458 42.7997 33.4702 41.6641L32.543 41.198L17.2616 40.1825L19.8444 45.593L46.5 46.209C44.6788 45.7761 42.8411 45.2434 41.0695 44.6441ZM9.34768 14.3616C12.2649 19.4905 15.735 24.2807 19.6954 28.6455V11.2651L2.99007 2.99115L1.5 22.3859L18.702 31.2592C14.1919 26.5283 10.9703 20.7087 9.34768 14.3616Z" fill="#119DFF"/>
</svg>
