<svg width="21" height="20" viewBox="0 0 21 20" fill="none" xmlns="http://www.w3.org/2000/svg">
<path d="M10.4998 16.6667C6.82484 16.6667 3.83317 13.675 3.83317 10C3.83317 6.32502 6.82484 3.33335 10.4998 3.33335C14.1748 3.33335 17.1665 6.32502 17.1665 10C17.1665 13.675 14.1748 16.6667 10.4998 16.6667ZM10.4998 1.66669C9.40549 1.66669 8.32186 1.88224 7.31081 2.30102C6.29976 2.71981 5.3811 3.33364 4.60728 4.10746C3.04448 5.67027 2.1665 7.78988 2.1665 10C2.1665 12.2102 3.04448 14.3298 4.60728 15.8926C5.3811 16.6664 6.29976 17.2802 7.31081 17.699C8.32186 18.1178 9.40549 18.3334 10.4998 18.3334C12.71 18.3334 14.8296 17.4554 16.3924 15.8926C17.9552 14.3298 18.8332 12.2102 18.8332 10C18.8332 8.90567 18.6176 7.82204 18.1988 6.81099C17.78 5.79995 17.1662 4.88129 16.3924 4.10746C15.6186 3.33364 14.6999 2.71981 13.6889 2.30102C12.6778 1.88224 11.5942 1.66669 10.4998 1.66669Z" fill="#00CC96"/>
<rect x="6.09717" y="10.2771" width="1.67" height="4.345" transform="rotate(-45 6.09717 10.2771)" fill="#00CC96"/>
<rect x="13.752" y="6.97589" width="1.67" height="7.74359" transform="rotate(45 13.752 6.97589)" fill="#00CC96"/>
</svg>
