<svg width="450" height="175" viewBox="0 0 450 175" fill="none" xmlns="http://www.w3.org/2000/svg">
<mask id="mask0" mask-type="alpha" maskUnits="userSpaceOnUse" x="0" y="0" width="450" height="175">
<rect width="450" height="175" fill="#C4C4C4"/>
</mask>
<g mask="url(#mask0)">
<path d="M128.207 1.99272C70.1972 -9.84897 18.745 30.8895 4.31985 92.6678C-10.1054 154.446 14.3337 186.332 37.3218 226.189C72.3784 286.971 181.551 341.237 265.083 337.789C337.517 334.8 389.028 316.514 425.936 248.111C489.378 130.532 417.444 53.9065 325.527 68.2551C214.571 85.576 213.629 19.4302 128.207 1.99272Z" fill="#DFE8F3"/>
<path d="M156.284 169.426C158.158 167.553 160.699 166.5 163.349 166.5H331.911C334.561 166.5 337.102 167.553 338.976 169.426L346.041 176.491H149.22L156.284 169.426Z" fill="#C8D4E3"/>
<path d="M174.099 170.258C174.283 170.09 174.524 169.997 174.773 169.997H318.49C318.739 169.997 318.98 170.09 319.164 170.258V170.258C319.837 170.874 319.402 171.995 318.49 171.995H174.773C173.861 171.995 173.426 170.874 174.099 170.258V170.258Z" fill="#506784"/>
<path d="M94.227 87.881C94.3962 80.1988 92.5048 65.0608 83.5857 65.9664C83.5857 65.9664 70.5776 76.0877 75.6391 83.6188C80.7005 91.1498 93.4677 94.5083 94.227 87.881Z" fill="#F3C6BF"/>
<path d="M89.275 91.3105L88 98C85.5023 99.4986 76.5531 99.0196 74.5 95C74.5 95 76.8298 89.9135 77.8446 84.9226L89.275 91.3105Z" fill="#F3C6BF"/>
<path d="M92.2719 67.1161C92.2719 72.7689 84.2242 68.8872 82.3423 72.9126C80.4605 76.9379 77.3952 86.9208 77.3952 86.9208C72.6323 84.7414 66.7273 69.33 73.2936 65.1034C79.3506 61.2047 92.2719 63.0102 92.2719 67.1161Z" fill="#506784"/>
<path d="M79.7654 83.9628C75.1522 80.7269 76.371 75.1343 79.7562 76.9534C85.1994 79.8785 81.2934 82.9808 79.7654 83.9628Z" fill="#F3C6BF"/>
</g>
</svg>
