<svg width="18" height="18" viewBox="0 0 18 18" fill="none" xmlns="http://www.w3.org/2000/svg">
<path d="M5 4C5 5.10457 4.10457 6 3 6C1.89543 6 1 5.10457 1 4C1 2.89543 1.89543 2 3 2C4.10457 2 5 2.89543 5 4Z" fill="#A2B1C6"/>
<path d="M17 7.5C17 8.88071 15.8807 10 14.5 10C13.1193 10 12 8.88071 12 7.5C12 6.11929 13.1193 5 14.5 5C15.8807 5 17 6.11929 17 7.5Z" fill="#A2B1C6"/>
<path d="M8 13.5C8 14.8807 6.88071 16 5.5 16C4.11929 16 3 14.8807 3 13.5C3 12.1193 4.11929 11 5.5 11C6.88071 11 8 12.1193 8 13.5Z" fill="#A2B1C6"/>
<path d="M2.93128 5.31436L3.90527 5.08778L5.48693 11.8867L4.51294 12.1133L2.93128 5.31436Z" fill="#A2B1C6"/>
<path d="M12.9447 7.79159L13.5548 8.58392L7.30516 13.3962L6.69507 12.6038L12.9447 7.79159Z" fill="#A2B1C6"/>
<path d="M14.1316 6.51712L3.13166 3.51723L2.86844 4.48202L13.8684 7.48191L14.1316 6.51712Z" fill="#A2B1C6"/>
</svg>
