<svg width="18" height="18" viewBox="0 0 18 18" fill="none" xmlns="http://www.w3.org/2000/svg">
<g clip-path="url(#clip0_2131_6054)">
<path d="M3.03784 10.993L3.03784 2.55579L11.4751 2.55579V7.08445C11.9655 6.92836 12.4772 6.88284 12.9751 6.94109V2.55579C12.9751 1.72736 12.3035 1.05579 11.4751 1.05579L3.03784 1.05579C2.20942 1.05579 1.53784 1.72736 1.53784 2.55579L1.53784 10.993C1.53784 11.8215 2.20942 12.493 3.03784 12.493H9.58307C9.271 12.0269 9.08279 11.5139 9.01083 10.993H3.03784Z" fill="#A2B1C6"/>
<path fill-rule="evenodd" clip-rule="evenodd" d="M14.2887 9.33754C14.9307 10.2921 14.6773 11.5863 13.7228 12.2283C12.7682 12.8703 11.474 12.6169 10.832 11.6623C10.19 10.7077 10.4434 9.41351 11.398 8.77155C12.3525 8.12958 13.6468 8.38299 14.2887 9.33754ZM13.9606 13.7986L16.1181 17.0066C16.3492 17.3503 16.8153 17.4416 17.159 17.2104C17.5027 16.9793 17.5939 16.5132 17.3628 16.1695L15.1884 12.9364C16.2949 11.7449 16.4801 9.90801 15.5334 8.50045C14.4292 6.85847 12.2029 6.42257 10.5609 7.52685C8.91891 8.63113 8.48302 10.8574 9.5873 12.4994C10.562 13.9488 12.4109 14.4584 13.9606 13.7986Z" fill="#A2B1C6"/>
</g>
<defs>
<clipPath id="clip0_2131_6054">
<rect width="18" height="18" fill="white" transform="translate(7.86805e-07 18) rotate(-90)"/>
</clipPath>
</defs>
</svg>
