<svg width="19" height="19" viewBox="0 0 19 19" fill="none" xmlns="http://www.w3.org/2000/svg">
<g clip-path="url(#clip0)">
<path d="M2.03345 13.6725L5.8465 10.2694L9.25264 13.2145L14.0613 8.16519L17.2235 11.38" stroke="#A2B1C6" stroke-width="1.5" stroke-linecap="round" stroke-linejoin="round"/>
<circle cx="6.00049" cy="6.50339" r="1.5" fill="#A2B1C6"/>
<path fill-rule="evenodd" clip-rule="evenodd" d="M16.536 1.71786L2.46546 1.71298C1.64046 1.71298 0.965462 2.38798 0.965462 3.21298L0.964111 15.7821C0.964111 16.6071 1.63911 17.2821 2.46411 17.2821L16.5347 17.287C17.3674 17.287 18.0347 16.6121 18.0347 15.787L18.036 3.21786C18.036 2.38786 17.366 1.71786 16.536 1.71786ZM16.5374 3.21786L2.46424 3.21298L2.46289 15.7772L16.536 15.7821L16.5374 3.21786Z" fill="#A2B1C6"/>
</g>
<defs>
<clipPath id="clip0">
<rect width="18" height="18" fill="white" transform="translate(0.5 0.5)"/>
</clipPath>
</defs>
</svg>
